<svg width="60" height="60" viewBox="0 0 60 60" fill="none" xmlns="http://www.w3.org/2000/svg">
<path d="M29.2008 38.4755C28.0537 40.2783 26.9532 42.042 24.4873 43.7554C23.1682 44.68 20.1321 46.4865 15.8166 46.4865C7.58309 46.4865 0.9375 40.5006 0.9375 29.9767C0.9375 20.7791 7.18887 13.5135 15.9921 13.5135C19.5586 13.5135 22.7273 14.7464 25.0609 16.596C27.2188 18.3128 28.2294 20.0301 29.1113 21.5713L22.9495 24.6502C22.5087 23.6393 21.978 22.5819 20.616 21.4385C19.1179 20.2485 17.623 19.8973 16.3433 19.8973C11.3252 19.8973 8.68348 24.5643 8.68348 29.758C8.68348 36.5828 12.1639 39.9701 16.3433 39.9701C20.3937 39.9701 22.0246 37.1527 23.0786 35.3499L29.2008 38.4755ZM50.786 14.4813H59.0625L48.2769 45.5618H40.3554L29.7026 14.4813H37.9789L44.4059 36.5829L50.786 14.4813Z" fill="#3F51B5"/>
</svg>
