<svg width="41" height="46" viewBox="0 0 41 46" fill="none" xmlns="http://www.w3.org/2000/svg">
<path d="M38.2843 5.49945V2.3082L40.6005 0.5H15.5352L0.399536 13.6571H10.4373C10.4196 13.8999 10.411 14.1432 10.4117 14.3866C10.4117 16.8294 11.2578 18.8499 12.9514 20.4641C14.6451 22.0809 16.7309 22.8837 19.2006 22.8837C19.7775 22.8837 20.3432 22.8406 20.8926 22.7637C20.5519 23.5255 20.38 24.2313 20.38 24.8898C20.38 26.047 20.9072 27.2839 21.9582 28.5978C17.3604 28.9107 13.9823 29.7383 11.8288 31.0779C10.5947 31.8396 9.60227 32.801 8.85344 33.9526C8.1045 35.1127 7.73102 36.3567 7.73102 37.6981C7.73102 38.8288 7.97266 39.8469 8.45981 40.7523C8.94684 41.6577 9.58223 42.4011 10.3714 42.977C11.1586 43.5591 12.067 44.0435 13.0923 44.4382C14.1159 44.83 15.1321 45.1082 16.1464 45.2657C17.143 45.4213 18.1501 45.4996 19.1588 45.5C20.7372 45.5 22.3173 45.2968 23.9104 44.8921C25.4997 44.4837 26.9901 43.8794 28.3836 43.0766C29.7734 42.2791 30.9048 41.1915 31.7729 39.8284C32.6389 38.4596 33.0729 36.9215 33.0729 35.2187C33.0729 33.9277 32.8093 32.7532 32.2819 31.6866C31.7583 30.6234 31.1173 29.7481 30.354 29.0681C29.5921 28.3869 28.8305 27.7609 28.0669 27.1968C27.3052 26.6291 26.6607 26.0543 26.1371 25.4609C25.6115 24.8696 25.3478 24.2827 25.3478 23.705C25.3478 23.1283 25.551 22.5716 25.9591 22.0333C26.364 21.4931 26.8584 20.973 27.4368 20.474C28.0154 19.976 28.594 19.4231 29.1707 18.8178C29.7475 18.2146 30.2419 17.4318 30.6484 16.4731C31.0568 15.5145 31.2582 14.4288 31.2582 13.2204C31.2582 11.6438 30.9597 10.3539 30.3738 9.31637C30.3041 9.1966 30.231 9.10508 30.154 8.96223L36.8228 3.49285V5.49898C35.9564 5.60797 36.0466 6.12535 36.0466 6.74527V21.8234C36.0466 22.5216 36.6179 23.093 37.3162 23.093H37.7836C38.4818 23.093 39.0531 22.5218 39.0531 21.8234V6.74527C39.0531 6.12687 39.1443 5.60984 38.2843 5.49945ZM25.703 31.5714C25.8366 31.6593 26.1371 31.8972 26.6075 32.279C27.0821 32.6591 27.404 32.9464 27.5761 33.1479C27.8285 33.4399 28.0776 33.7347 28.3233 34.0323C28.653 34.4278 28.8762 34.771 28.9934 35.0558C29.1106 35.3461 29.2297 35.6957 29.3505 36.1041C29.466 36.5066 29.5245 36.9232 29.5245 37.3419C29.5245 39.3397 28.7553 40.82 27.2211 41.7785C25.683 42.7371 23.8499 43.2168 21.7205 43.2168C20.6439 43.2168 19.5873 43.0888 18.5491 42.8423C17.5128 42.5943 16.5204 42.217 15.5737 41.7172C14.627 41.2182 13.8654 40.5214 13.2885 39.6316C12.7098 38.7363 12.4205 37.708 12.4205 36.5554C12.4205 35.3461 12.7483 34.2949 13.4075 33.4024C14.063 32.5088 14.9236 31.8331 15.9893 31.3733C17.0514 30.9109 18.128 30.5832 19.2193 30.3891C20.3188 30.1889 21.4342 30.0887 22.5518 30.0897C23.0757 30.0897 23.4818 30.119 23.7712 30.1713C23.8245 30.197 24.1265 30.4139 24.6776 30.8232C25.2289 31.2289 25.5712 31.4789 25.703 31.5713V31.5714ZM25.3094 19.7848C24.4415 20.8231 23.2312 21.342 21.6821 21.342C20.2922 21.342 19.069 20.7837 18.0181 19.6648C16.9634 18.5489 16.2108 17.2827 15.7512 15.8645C15.2898 14.4454 15.0591 13.0538 15.0591 11.687C15.0591 10.0822 15.4805 8.71602 16.3225 7.5882C17.1647 6.45734 18.3733 5.89074 19.9481 5.89074C21.3397 5.89074 22.57 6.48113 23.6321 7.66695C24.6978 8.84879 25.4614 10.1763 25.9192 11.6476C26.3788 13.1171 26.6075 14.5222 26.6075 15.8645C26.6075 17.4402 26.1736 18.7484 25.3095 19.7848H25.3094Z" fill="#3F51B5"/>
</svg>
