<svg width="80" height="60" viewBox="0 0 80 60" fill="none" xmlns="http://www.w3.org/2000/svg">
<g clip-path="url(#clip0_108_8)">
<path d="M61.5972 27.6562L62.2222 40C62.3148 41.7969 61.3657 43.4635 59.375 45C57.3843 46.5365 54.6644 47.7539 51.2153 48.6523C47.7662 49.5508 44.0278 50 40 50C35.9722 50 32.2338 49.5508 28.7847 48.6523C25.3356 47.7539 22.6157 46.5365 20.625 45C18.6343 43.4635 17.6852 41.7969 17.7778 40L18.4028 27.6562L38.3333 34.7266C38.8426 34.9089 39.3982 35 40 35C40.6019 35 41.1574 34.9089 41.6667 34.7266L61.5972 27.6562ZM80 15C80 15.599 79.7454 16.0026 79.2361 16.2109L40.3472 29.9609C40.2546 29.987 40.1389 30 40 30C39.8611 30 39.7454 29.987 39.6528 29.9609L17.0139 21.9141C16.0185 22.7995 15.1968 24.2513 14.5486 26.2695C13.9005 28.2878 13.5069 30.612 13.3681 33.2422C14.8264 34.1797 15.5556 35.599 15.5556 37.5C15.5556 39.2969 14.8843 40.6901 13.5417 41.6797L15.5556 58.5938C15.6019 58.9583 15.5093 59.2839 15.2778 59.5703C15.0694 59.8568 14.7917 60 14.4444 60H7.77778C7.43056 60 7.15278 59.8568 6.94444 59.5703C6.71296 59.2839 6.62037 58.9583 6.66667 58.5938L8.68056 41.6797C7.33796 40.6901 6.66667 39.2969 6.66667 37.5C6.66667 35.599 7.41898 34.1536 8.92361 33.1641C9.17824 27.7734 10.3125 23.4766 12.3264 20.2734L0.763889 16.2109C0.25463 16.0026 0 15.599 0 15C0 14.401 0.25463 13.9974 0.763889 13.7891L39.6528 0.0390625C39.7454 0.0130208 39.8611 0 40 0C40.1389 0 40.2546 0.0130208 40.3472 0.0390625L79.2361 13.7891C79.7454 13.9974 80 14.401 80 15Z" fill="#343A40"/>
</g>
<defs>
<clipPath id="clip0_108_8">
<rect width="80" height="60" fill="white"/>
</clipPath>
</defs>
</svg>
