<svg width="46" height="46" viewBox="0 0 46 46" fill="none" xmlns="http://www.w3.org/2000/svg">
<path d="M40.5 0.5C41.8261 0.5 43.0979 1.02678 44.0355 1.96447C44.9732 2.90215 45.5 4.17392 45.5 5.5V40.5C45.5 41.8261 44.9732 43.0979 44.0355 44.0355C43.0979 44.9732 41.8261 45.5 40.5 45.5H5.5C4.17392 45.5 2.90215 44.9732 1.96447 44.0355C1.02678 43.0979 0.5 41.8261 0.5 40.5V5.5C0.5 4.17392 1.02678 2.90215 1.96447 1.96447C2.90215 1.02678 4.17392 0.5 5.5 0.5H40.5ZM39.25 39.25V26C39.25 23.8385 38.3913 21.7655 36.8629 20.2371C35.3345 18.7087 33.2615 17.85 31.1 17.85C28.975 17.85 26.5 19.15 25.3 21.1V18.325H18.325V39.25H25.3V26.925C25.3 25 26.85 23.425 28.775 23.425C29.7033 23.425 30.5935 23.7937 31.2499 24.4501C31.9063 25.1065 32.275 25.9967 32.275 26.925V39.25H39.25ZM10.2 14.4C11.3139 14.4 12.3822 13.9575 13.1698 13.1698C13.9575 12.3822 14.4 11.3139 14.4 10.2C14.4 7.875 12.525 5.975 10.2 5.975C9.07946 5.975 8.00481 6.42013 7.21247 7.21247C6.42013 8.00481 5.975 9.07946 5.975 10.2C5.975 12.525 7.875 14.4 10.2 14.4ZM13.675 39.25V18.325H6.75V39.25H13.675Z" fill="#3F51B5"/>
</svg>
