<svg width="38" height="54" viewBox="0 0 38 54" fill="none" xmlns="http://www.w3.org/2000/svg">
<path d="M19 0.75C8.66172 0.75 0.25 8.79492 0.25 18.6797C0.25 23.3871 2.3957 29.6473 6.62734 37.2867C10.0258 43.4203 13.9574 48.9668 16.0023 51.7266C16.3479 52.1981 16.7997 52.5816 17.3211 52.8459C17.8425 53.1103 18.4189 53.248 19.0035 53.248C19.5881 53.248 20.1645 53.1103 20.6859 52.8459C21.2073 52.5816 21.6591 52.1981 22.0047 51.7266C24.0461 48.9668 27.9813 43.4203 31.3797 37.2867C35.6043 29.6496 37.75 23.3895 37.75 18.6797C37.75 8.79492 29.3383 0.75 19 0.75ZM19 27C17.5166 27 16.0666 26.5601 14.8332 25.736C13.5999 24.9119 12.6386 23.7406 12.0709 22.3701C11.5032 20.9997 11.3547 19.4917 11.6441 18.0368C11.9335 16.582 12.6478 15.2456 13.6967 14.1967C14.7456 13.1478 16.082 12.4335 17.5368 12.1441C18.9917 11.8547 20.4997 12.0032 21.8701 12.5709C23.2406 13.1386 24.4119 14.0999 25.236 15.3332C26.0601 16.5666 26.5 18.0166 26.5 19.5C26.4978 21.4885 25.707 23.3949 24.3009 24.8009C22.8949 26.207 20.9885 26.9978 19 27Z" fill="#343A40"/>
</svg>
