<svg width="41" height="41" viewBox="0 0 41 41" fill="none" xmlns="http://www.w3.org/2000/svg">
<path d="M28.6022 30.1756L30.1756 28.6022L21.6111 20.0378V9.38889H19.3889V20.9622L28.6022 30.1756ZM20.5067 40.5C17.7422 40.5 15.1422 39.9756 12.7067 38.9267C10.2726 37.8763 8.15481 36.4511 6.35333 34.6511C4.55185 32.8511 3.12593 30.7356 2.07556 28.3044C1.02519 25.8733 0.5 23.2741 0.5 20.5067C0.5 17.7393 1.02519 15.1393 2.07556 12.7067C3.12444 10.2726 4.54741 8.15481 6.34444 6.35333C8.14148 4.55185 10.2578 3.12593 12.6933 2.07556C15.1289 1.02519 17.7289 0.5 20.4933 0.5C23.2578 0.5 25.8578 1.02519 28.2933 2.07556C30.7274 3.12444 32.8452 4.54815 34.6467 6.34667C36.4481 8.14518 37.8741 10.2615 38.9244 12.6956C39.9748 15.1296 40.5 17.7289 40.5 20.4933C40.5 23.2578 39.9756 25.8578 38.9267 28.2933C37.8778 30.7289 36.4526 32.8467 34.6511 34.6467C32.8496 36.4467 30.7341 37.8726 28.3044 38.9244C25.8748 39.9763 23.2756 40.5015 20.5067 40.5Z" fill="#343A40"/>
</svg>
