<svg width="60" height="60" viewBox="0 0 60 60" fill="none" xmlns="http://www.w3.org/2000/svg">
<g clip-path="url(#clip0_107_6)">
<path d="M30 0C13.43 0 0 13.43 0 30C0 46.57 13.43 60 30 60C46.57 60 60 46.57 60 30C60 13.43 46.57 0 30 0ZM18.4225 10.945C19.735 10.945 20.79 12.0225 20.79 13.3125C20.79 14.6025 19.735 15.68 18.4225 15.68C17.7952 15.678 17.1942 15.428 16.7506 14.9844C16.307 14.5408 16.057 13.9398 16.055 13.3125C16.055 12 17.11 10.945 18.4225 10.945ZM16.6175 18.54H20.2275V43.6425H16.6175V18.54ZM25.5225 18.54H35.2725C44.5525 18.54 48.6325 25.1725 48.6325 31.1025C48.6325 37.5475 43.5925 43.665 35.32 43.665H25.5225V18.54ZM29.1325 21.7975V40.4075H34.875C43.055 40.4075 44.93 34.1975 44.93 31.1025C44.93 26.0625 41.72 21.7975 34.6875 21.7975H29.1325Z" fill="#3F51B5"/>
</g>
<defs>
<clipPath id="clip0_107_6">
<rect width="60" height="60" fill="white"/>
</clipPath>
</defs>
</svg>
