<svg width="40" height="40" viewBox="0 0 40 40" fill="none" xmlns="http://www.w3.org/2000/svg">
<g clip-path="url(#clip0_138_16)">
<path fill-rule="evenodd" clip-rule="evenodd" d="M27.5867 36.8883C25.1867 36.8 18.385 35.86 11.2617 28.7383C4.14002 21.615 3.20169 14.815 3.11169 12.4133C2.97835 8.75333 5.78169 5.19833 9.02002 3.80999C9.40998 3.6416 9.83702 3.57749 10.2592 3.62395C10.6815 3.67041 11.0843 3.82584 11.4284 4.07499C14.095 6.01833 15.935 8.95833 17.515 11.27C17.8627 11.7779 18.0113 12.3959 17.9326 13.0063C17.8539 13.6167 17.5534 14.1769 17.0884 14.58L13.8367 16.995C13.6796 17.1084 13.569 17.275 13.5255 17.4639C13.482 17.6527 13.5084 17.8509 13.6 18.0217C14.3367 19.36 15.6467 21.3533 17.1467 22.8533C18.6484 24.3533 20.735 25.75 22.1667 26.57C22.3462 26.6708 22.5575 26.6989 22.7571 26.6487C22.9567 26.5985 23.1296 26.4737 23.24 26.3L25.3567 23.0783C25.7458 22.5614 26.3199 22.2151 26.9586 22.112C27.5974 22.0088 28.2513 22.1568 28.7834 22.525C31.1284 24.1483 33.865 25.9567 35.8684 28.5217C36.1377 28.8682 36.3091 29.2807 36.3645 29.7161C36.4199 30.1514 36.3574 30.5937 36.1834 30.9967C34.7884 34.2517 31.2584 37.0233 27.5867 36.8883Z" fill="#343A40"/>
</g>
<defs>
<clipPath id="clip0_138_16">
<rect width="40" height="40" fill="white"/>
</clipPath>
</defs>
</svg>
