<svg width="12" height="15" viewBox="0 0 12 15" fill="none" xmlns="http://www.w3.org/2000/svg">
<path d="M0 1.5C0 1.10218 0.158035 0.720644 0.43934 0.43934C0.720644 0.158035 1.10218 0 1.5 0H7.5C7.6989 4.24781e-05 7.88963 0.079088 8.03025 0.21975L11.7803 3.96975C11.9209 4.11037 12 4.3011 12 4.5V13.5C12 13.8978 11.842 14.2794 11.5607 14.5607C11.2794 14.842 10.8978 15 10.5 15H1.5C1.10218 15 0.720644 14.842 0.43934 14.5607C0.158035 14.2794 0 13.8978 0 13.5V1.5ZM10.1895 4.5L7.5 1.8105V4.5H10.1895ZM6 1.5H1.5V13.5H10.5V6H6.75C6.55109 6 6.36032 5.92098 6.21967 5.78033C6.07902 5.63968 6 5.44891 6 5.25V1.5ZM3 8.25C3 8.05109 3.07902 7.86032 3.21967 7.71967C3.36032 7.57902 3.55109 7.5 3.75 7.5H8.25C8.44891 7.5 8.63968 7.57902 8.78033 7.71967C8.92098 7.86032 9 8.05109 9 8.25C9 8.44891 8.92098 8.63968 8.78033 8.78033C8.63968 8.92098 8.44891 9 8.25 9H3.75C3.55109 9 3.36032 8.92098 3.21967 8.78033C3.07902 8.63968 3 8.44891 3 8.25ZM3 11.25C3 11.0511 3.07902 10.8603 3.21967 10.7197C3.36032 10.579 3.55109 10.5 3.75 10.5H8.25C8.44891 10.5 8.63968 10.579 8.78033 10.7197C8.92098 10.8603 9 11.0511 9 11.25C9 11.4489 8.92098 11.6397 8.78033 11.7803C8.63968 11.921 8.44891 12 8.25 12H3.75C3.55109 12 3.36032 11.921 3.21967 11.7803C3.07902 11.6397 3 11.4489 3 11.25Z" fill="#343A40"/>
</svg>
